<svg t="1618453817767" class="icon" viewBox="0 0 1025 1024" version="1.1" xmlns="http://www.w3.org/2000/svg" p-id="1955" width="24" height="24"><path d="M1016.5248 493.8752c-9.984-9.984-26.2144-9.984-36.1984 0l-183.6032 183.6032c-29.952 29.952-78.6944 29.952-108.5952 0l-239.2064-239.2064c-14.4384-14.4384-22.3744-33.6896-22.3744-54.3232s7.936-39.8848 22.3744-54.3232l183.6032-183.6032c9.984-9.984 9.984-26.2144 0-36.1984s-26.2144-9.984-36.1984 0l-183.6032 183.6032c-24.1152 24.1152-37.376 56.2176-37.376 90.5216 0 14.592 2.4576 28.8256 7.0656 42.1888l-374.8864 374.8864c-4.8128 4.8128-7.4752 11.3152-7.4752 18.1248l0 76.8c0 14.1312 11.4688 25.6 25.6 25.6l486.4 0c6.8096 0 13.312-2.7136 18.1248-7.4752l170.0864-170.0864c13.3632 4.6592 27.5968 7.0656 42.1888 7.0656 34.2528 0 66.4064-13.2608 90.5216-37.376l183.6032-183.6032c9.984-9.984 9.984-26.2144 0-36.1984zM501.4016 870.4l-450.2016 0 0-40.6016 358.5024-358.5024c1.024 1.0752 1.9968 2.1504 3.0208 3.1744l239.2064 239.2064c1.024 1.024 2.0992 2.048 3.1744 3.0208l-153.7024 153.7024z" p-id="1956"></path></svg>