<svg t="1617263608591" class="icon" viewBox="0 0 1035 1024" version="1.1" xmlns="http://www.w3.org/2000/svg" p-id="3220" width="24" height="24"><path d="M69.996662 956.931683l62.725525-226.841784c3.06095-11.079827 13.463022-28.933525 21.588719-37.055539l634.253813-634.253813c0.707223-0.707223 190.117755 187.528288 190.117756 187.528288 0.72564 0.72564-634.235396 636.858014-634.235396 636.858014-7.812604 7.812604-25.342158 17.477986-36.116259 19.912748l-238.334158 53.852086z m45.243856-302.967712c-14.877468 14.881151-30.167482 41.118388-35.773698 61.403166L4.445928 986.686619c-5.565698 20.122705 12.346935 38.908317 32.712748 34.307683l283.349641-64.025784c20.958849-4.736921 47.811223-19.540719 63.005467-34.734964l634.253813-634.253813c22.292259-22.292259 22.281209-58.445353-0.018417-80.741295L830.239309 19.728576c-22.292259-22.292259-58.452719-22.310676-80.744978-0.014734L115.240518 653.960288z" p-id="3221"></path><path d="M671.114129 183.447022l187.89295 187.892949a27.625899 27.625899 0 0 0 39.066705-39.066705l-187.892949-187.892949a27.625899 27.625899 0 0 0-39.066706 39.066705zM125.96305 699.130475l222.915223 222.918906a27.625899 27.625899 0 0 0 39.070389-39.070388l-222.918907-222.915223a27.625899 27.625899 0 0 0-39.066705 39.066705z" p-id="3222"></path></svg>