<svg t="1618544814422" class="icon" viewBox="0 0 1024 1024" version="1.1" xmlns="http://www.w3.org/2000/svg" p-id="14902" width="14" height="14"><path d="M807.9 369c83.6 0 151.5-68 151.5-151.5S891.4 66 807.9 66c-83.6 0-151.5 68-151.5 151.5 0 8.6 0.7 16.9 2.1 25.1l-346 156.5c-26.2-21.7-59.8-34.7-96.4-34.7-83.6 0-151.5 68-151.5 151.5s68 151.5 151.5 151.5c32.8 0 63.2-10.5 88-28.2l229 128.6c-3.3 12.4-5 25.3-5 38.7 0 83.6 68 151.5 151.5 151.5 83.6 0 151.5-68 151.5-151.5 0-83.6-68-151.5-151.5-151.5-41.4 0-78.9 16.7-106.3 43.6L355.1 576.2c8-18.5 12.5-38.8 12.5-60.2 0-17.6-3-34.4-8.5-50.1l333.1-150.7C720 348 761.6 369 807.9 369zM216.1 587.5c-39.4 0-71.5-32.1-71.5-71.5s32.1-71.5 71.5-71.5 71.5 32.1 71.5 71.5-32.1 71.5-71.5 71.5zM679.6 735c39.4 0 71.5 32.1 71.5 71.5S719 878 679.6 878s-71.5-32.1-71.5-71.5 32-71.5 71.5-71.5z m128.3-589.1c39.4 0 71.5 32.1 71.5 71.5s-32.1 71.5-71.5 71.5-71.5-32.1-71.5-71.5 32.1-71.5 71.5-71.5z" p-id="14903"></path></svg>