<svg t="1618544393298" class="icon" viewBox="0 0 1024 1024" version="1.1" xmlns="http://www.w3.org/2000/svg" p-id="13132" width="14" height="14"><path d="M501.148 511.008a37.542 37.542 0 0 1-38.245-36.71V36.903C462.903 16.565 480.043 0 501.148 0c21.17 0 38.374 16.629 38.374 36.903v437.203a37.606 37.606 0 0 1-38.31 36.902z m-11.512 512.288a497.386 497.386 0 0 1-346.002-138.273 470.46 470.46 0 0 1-104.888-150.04 457.413 457.413 0 0 1 17.588-402.796 483.188 483.188 0 0 1 148.89-164.622 39.205 39.205 0 0 1 53.467 8.57 35.943 35.943 0 0 1-8.954 51.356 408.423 408.423 0 0 0-125.61 139.04A380.858 380.858 0 0 0 76.865 551.11c0 106.423 42.979 206.45 121.005 281.662a417.76 417.76 0 0 0 291.895 116.656A418.016 418.016 0 0 0 781.66 832.835a388.597 388.597 0 0 0 120.877-281.726 380.538 380.538 0 0 0-47.135-184.577 408.04 408.04 0 0 0-125.802-138.913 35.943 35.943 0 0 1-9.401-50.653l0.64-0.767a39.141 39.141 0 0 1 53.402-8.57 482.548 482.548 0 0 1 148.826 164.558 456.966 456.966 0 0 1 17.652 402.795A469.82 469.82 0 0 1 835.83 885.087a489.903 489.903 0 0 1-155.541 101.178 503.462 503.462 0 0 1-190.653 37.03z" p-id="13133"></path></svg>