<svg t="1619487635463" class="icon" viewBox="0 0 1024 1024" version="1.1" xmlns="http://www.w3.org/2000/svg" p-id="3658" width="16" height="16"><path d="M768 640c-46.933333 0-89.6 21.333333-119.466667 51.2l-226.133333-132.266667c0-17.066667 4.266667-29.866667 4.266667-46.933333s-4.266667-29.866667-8.533334-46.933333l226.133334-132.266667c34.133333 29.866667 76.8 51.2 123.733333 51.2 93.866667 0 170.666667-76.8 170.666667-170.666667s-76.8-170.666667-170.666667-170.666666-170.666667 76.8-170.666667 170.666666c0 17.066667 4.266667 29.866667 8.533334 46.933334L375.466667 392.533333C345.6 362.666667 302.933333 341.333333 256 341.333333c-93.866667 0-170.666667 76.8-170.666667 170.666667s76.8 170.666667 170.666667 170.666667c46.933333 0 89.6-21.333333 119.466667-51.2l226.133333 132.266666c0 17.066667-4.266667 29.866667-4.266667 46.933334 0 93.866667 76.8 170.666667 170.666667 170.666666s170.666667-76.8 170.666667-170.666666-76.8-170.666667-170.666667-170.666667z m0-512c46.933333 0 85.333333 38.4 85.333333 85.333333s-38.4 85.333333-85.333333 85.333334-85.333333-38.4-85.333333-85.333334 38.4-85.333333 85.333333-85.333333zM256 597.333333c-46.933333 0-85.333333-38.4-85.333333-85.333333s38.4-85.333333 85.333333-85.333333 85.333333 38.4 85.333333 85.333333-38.4 85.333333-85.333333 85.333333z m512 298.666667c-46.933333 0-85.333333-38.4-85.333333-85.333333 0-17.066667 4.266667-29.866667 12.8-42.666667 12.8-25.6 42.666667-42.666667 72.533333-42.666667 46.933333 0 85.333333 38.4 85.333333 85.333334s-38.4 85.333333-85.333333 85.333333z" p-id="3659"></path></svg>